<?xml version="1.0" encoding="UTF-8"?> <!-- Generator: Adobe Illustrator 24.0.0, SVG Export Plug-In . SVG Version: 6.00 Build 0) --> <svg xmlns="http://www.w3.org/2000/svg" xmlns:xlink="http://www.w3.org/1999/xlink" id="Calque_1" x="0px" y="0px" viewBox="0 0 622 432" style="enable-background:new 0 0 622 432;" xml:space="preserve"> <style type="text/css"> .st0{opacity:0.1;fill:#26A69A;enable-background:new ;} .st1{fill:none;stroke:#535461;stroke-width:2;stroke-miterlimit:10;} .st2{fill:#26A69A;} .st3{opacity:0.25;enable-background:new ;} .st4{fill:#C8CAD7;} .st5{opacity:0.1;enable-background:new ;} .st6{fill:#474157;} .st7{fill:#F6F7F9;} .st8{fill:#FFFFFF;} .st9{fill:#CCE7E6;} .st10{fill:#EDEDF4;} .st11{fill:#2F2E41;} .st12{fill:#9F616A;} .st13{fill:#575988;} .st14{fill:#A0616A;} </style> <title>Group 82 Copy</title> <desc>Created with Sketch.</desc> <g> <g> <path class="st0" d="M609.9,109c-6.4-12.4-14.7-23.6-24.7-33.3l-343-2.9l282.4-33.5c-18.5-6.2-37.8-9.4-57.3-9.6 C440.1,11.1,405.2,0,367.1,0c-34.2,0-65.8,9-91.6,24.2c-22-9.5-46.9-14.9-73.4-14.9c-76.2,0-139.7,44.6-153.9,103.8L609.9,109z"></path> <path class="st0" d="M622,158.6c0-16.2-3.7-32.2-10.7-46.8L16.9,164.6c-6.1,9.2-10.8,19.2-14,29.7L187,217.5L-1.3,234.4 c5.7,67,73.6,119.9,156.6,119.9c41.8,0,79.7-13.4,107.8-35.2c28.2,22.3,66.5,36,108.8,36c62.7,0,116.7-30.2,141.9-73.7 c50.5-13.6,89.7-47.6,103.2-90.2l-232.8-30.5H622C622,160,622,159.3,622,158.6z"></path> </g> <ellipse class="st0" cx="141.3" cy="427.7" rx="15.8" ry="1.6"></ellipse> </g> <g> <ellipse class="st0" cx="488.5" cy="404.4" rx="9.4" ry="0.9"></ellipse> <g> <path class="st1" d="M179.3,304.7c0,0-25.5-36.8-21.2-71.5c1.9-14.6-0.9-29.3-8.2-42.1c-3.5-6.1-7.5-11.7-12-17"></path> <path class="st2" d="M140.6,152.1c1.7,5-2.6,22.4-2.6,22.4s-13.8-11.5-15.5-16.5c-1.7-5,1-10.4,6.1-12 C133.6,144.4,138.9,147.1,140.6,152.1L140.6,152.1z"></path> <path class="st2" d="M164.7,174.9c-1.3,5.1-14.4,17.4-14.4,17.4s-5.4-17.2-4-22.3c1.3-5.1,6.4-8.2,11.5-7c5.1,1.3,8.2,6.4,7,11.5 C164.7,174.7,164.7,174.8,164.7,174.9L164.7,174.9z"></path> <path class="st2" d="M179.7,222.4c-3.7,3.8-21.2,7.8-21.2,7.8s4-17.5,7.7-21.2c3.7-3.8,9.8-3.8,13.5,0 C183.4,212.6,183.4,218.6,179.7,222.4L179.7,222.4z"></path> <path class="st2" d="M182.9,260.9c-3,4.3-19.6,11.3-19.6,11.3s1-18,4-22.3c3-4.3,9-5.4,13.3-2.3 C184.9,250.5,186,256.6,182.9,260.9z"></path> <path class="st2" d="M131.7,199.6c4.7,2.3,22.6,0.4,22.6,0.4s-9.6-15.2-14.3-17.5c-4.8-2.1-10.4,0.1-12.6,4.9 C125.4,191.9,127.2,197.2,131.7,199.6z"></path> <path class="st2" d="M136,244.5c5.2,0.8,21.7-6.4,21.7-6.4s-13.7-11.7-18.9-12.5c-5.2-0.8-10,2.8-10.8,8 C127.2,238.9,130.8,243.8,136,244.5L136,244.5z"></path> <path class="st2" d="M146.3,287.7c5,1.7,22.4-2.6,22.4-2.6s-11.5-13.8-16.5-15.4s-10.4,1.1-12,6.1 C138.5,280.6,141.3,286,146.3,287.7L146.3,287.7z"></path> <path class="st3" d="M140.6,152.1c1.7,5-2.6,22.4-2.6,22.4s-13.8-11.5-15.5-16.5c-1.7-5,1-10.4,6.1-12 C133.6,144.4,138.9,147.1,140.6,152.1L140.6,152.1z"></path> <path class="st3" d="M164.7,174.9c-1.3,5.1-14.4,17.4-14.4,17.4s-5.4-17.2-4-22.3c1.3-5.1,6.4-8.2,11.5-7c5.1,1.3,8.2,6.4,7,11.5 C164.7,174.7,164.7,174.8,164.7,174.9L164.7,174.9z"></path> <path class="st3" d="M179.7,222.4c-3.7,3.8-21.2,7.8-21.2,7.8s4-17.5,7.7-21.2c3.7-3.8,9.8-3.8,13.5,0 C183.4,212.6,183.4,218.6,179.7,222.4L179.7,222.4z"></path> <path class="st3" d="M182.9,260.9c-3,4.3-19.6,11.3-19.6,11.3s1-18,4-22.3c3-4.3,9-5.4,13.3-2.3 C184.9,250.5,186,256.6,182.9,260.9z"></path> <path class="st3" d="M131.7,199.6c4.7,2.3,22.6,0.4,22.6,0.4s-9.6-15.2-14.3-17.5c-4.8-2.1-10.4,0.1-12.6,4.9 C125.4,191.9,127.2,197.2,131.7,199.6z"></path> <path class="st3" d="M136,244.5c5.2,0.8,21.7-6.4,21.7-6.4s-13.7-11.7-18.9-12.5c-5.2-0.8-10,2.8-10.8,8 C127.2,238.9,130.8,243.8,136,244.5L136,244.5z"></path> <path class="st3" d="M146.3,287.7c5,1.7,22.4-2.6,22.4-2.6s-11.5-13.8-16.5-15.4s-10.4,1.1-12,6.1 C138.5,280.6,141.3,286,146.3,287.7L146.3,287.7z"></path> <path class="st1" d="M179.2,303.2c0,0-38.2-23.3-48.3-56.8c-4.1-14.1-12.7-26.4-24.5-35.2c-5.6-4.1-11.6-7.7-17.9-10.8"></path> <path class="st2" d="M82,179.5c3.5,3.9,6.7,21.6,6.7,21.6s-17.3-4.9-20.8-8.8c-3.5-3.9-3.3-9.9,0.7-13.5 C72.4,175.3,78.4,175.5,82,179.5z"></path> <path class="st2" d="M113.2,190.4c0.8,5.2-6.1,21.8-6.1,21.8s-11.9-13.5-12.7-18.7c-0.8-5.2,2.6-10.1,7.9-10.9 C107.5,181.8,112.3,185.2,113.2,190.4L113.2,190.4z"></path> <path class="st2" d="M146.2,227.8c-1.9,4.9-16.3,15.7-16.3,15.7s-3.4-17.7-1.5-22.6c1.9-4.9,7.4-7.4,12.3-5.5 C145.6,217.3,148,222.9,146.2,227.8z"></path> <path class="st2" d="M164.7,261.6c-1,5.2-13.3,18.3-13.3,18.3s-6.3-16.8-5.3-22c1-5.2,6.1-8.5,11.2-7.5 C162.4,251.4,165.8,256.5,164.7,261.6z"></path> <path class="st2" d="M93,226.4c5.2,0.2,20.8-8.8,20.8-8.8s-14.9-10-20.2-10.2c-5.2-0.2-9.7,3.9-9.8,9.2 C83.6,221.8,87.7,226.2,93,226.4L93,226.4z"></path> <path class="st2" d="M115.2,265.8c5.1-1.4,17.3-14.7,17.3-14.7s-17.3-5.1-22.3-3.7c-5.1,1.3-8.1,6.6-6.8,11.6 c1.3,5.1,6.6,8.1,11.6,6.8C115.1,265.8,115.2,265.8,115.2,265.8L115.2,265.8z"></path> <path class="st2" d="M142,301c5.2-0.6,19.5-11.5,19.5-11.5s-16.2-7.9-21.3-7.4c-5.2,0.5-9,5.2-8.5,10.4 C132.1,297.7,136.8,301.6,142,301L142,301z"></path> <ellipse class="st0" cx="328.1" cy="404.5" rx="98.7" ry="5.8"></ellipse> <path class="st4" d="M380.4,394.2v3.5H275.8v-2.9c17.8-6.6,26.9-26.4,20.3-44.2c-3.2-8.5-9.6-15.5-17.9-19.3h101.5 c-17.3,7.9-24.8,28.4-16.9,45.6C366.3,384.7,372.6,390.9,380.4,394.2z"></path> <path class="st5" d="M379.7,331.4c-9.4,4.4-16.4,12.7-19,22.8h-63.5c-2.6-10.1-9.5-18.5-19-22.8H379.7z"></path> <path class="st4" d="M156,313.4v19.9c0,11,8,19.9,17.9,19.9h307.8c9.9,0,17.9-8.9,17.9-19.9v-19.9H156z"></path> <path class="st5" d="M380.4,394.2v3.5H275.8v-2.9c2.9-1,5.6-2.5,8.1-4.3H374C376,392,378.2,393.2,380.4,394.2z"></path> <path class="st4" d="M246.5,391.7h163.3c2.9,0,5.2,2.4,5.2,5.2l0,0c0,2.9-2.4,5.2-5.2,5.2H246.5c-2.9,0-5.2-2.4-5.2-5.2l0,0 C241.3,394.1,243.6,391.7,246.5,391.7z"></path> <path class="st6" d="M499.7,95.8c0-9.9-8.1-17.9-17.9-17.9l0,0H174c-9.9,0-17.9,8.1-17.9,17.9l0,0v221.5h343.6V95.8z"></path> <path class="st7" d="M174.2,95h307.2c4.9,0,8.8,4,8.8,8.8v190.3c0,4.9-4,8.8-8.8,8.8H174.2c-4.9,0-8.8-4-8.8-8.8V103.8 C165.4,98.9,169.4,95,174.2,95z"></path> <circle class="st8" cx="327.8" cy="86.4" r="4.1"></circle> <circle class="st8" cx="327.8" cy="334.1" r="10.2"></circle> <path class="st9" d="M490.3,103.8H165.4c0-4.9,4-8.8,8.8-8.8h307.2C486.3,95,490.3,98.9,490.3,103.8z"></path> <circle class="st10" cx="174.2" cy="99.4" r="2.2"></circle> <circle class="st10" cx="180.9" cy="99.4" r="2.2"></circle> <circle class="st10" cx="187.5" cy="99.4" r="2.2"></circle> <ellipse class="st0" cx="165.5" cy="427.3" rx="15.8" ry="1.6"></ellipse> <path class="st2" d="M171,401c0,0-20.6,10.6-9.9,23.2c0,0,1,2.8,3.9,2.5c0,0-0.6-1,1.7-1.9c0.8-0.3,1.5-0.7,2.2-1.2 c0.9-0.7,1.7-1.6,2-2.6l0,0c0,0,4.2-5.6,0.9-16.1c0,0,0.4-2.9,0.1-3.4l-2.5,3.4c0,0,2.6,1.7,2.9,4.3c0,0-2.7-4.3-3.3-3.8 c-0.1,0.1-1.3,1.9-1.3,1.9s4.5,3,4.8,7c0,0-2.5-5.5-5.2-6.3l-1.5,2.8c0,0,4.9,3,5.5,7.4c0,0-2.8-5.7-5.7-6.8l-1.2,2.9 c0,0,4.7,3,5.1,6.7c0,0-3.9-6.2-5.4-6.1c0,0-0.9,2.8-0.8,3.6c0,0,3.3,2.2,3.4,4.4c0,0-3.1-3.9-3.5-3.6c0,0-0.2,3.9,0.8,6 c0,0-1.6-2.9-1.4-6c-0.9,0.8-1.7,2-2,3.2c0,0-0.9-2.2,2-4.1c0,0,0.3-3,0.6-3.4c0,0-3.1,1.5-4.5,3.4c0,0,0.5-2.8,4.8-4.2l1.1-3 c0,0-4.3,1.8-5.6,3.4c0,0,0.9-2.8,6-4.1l1.5-2.8c0,0-3.8,1.3-5.7,2.8c0,0,1.4-2.4,6.1-3.5l1.2-1.7c0,0-2.8,1-3.5,1.3 c-0.8,0.3-0.9,0.2-0.9,0.2c1.4-1.2,3.1-2,5-2.3C168.6,404.5,171.3,401.1,171,401z"></path> <ellipse class="st0" cx="116.4" cy="402.9" rx="12.1" ry="1.2"></ellipse> <path class="st2" d="M120.6,382.8c0,0-15.8,8.2-7.6,17.8c0.5,1.2,1.7,2,3,1.9c0,0-0.4-0.8,1.3-1.4c0.6-0.2,1.2-0.6,1.7-0.9 c0.7-0.5,1.3-1.2,1.5-2l0,0c0,0,3.2-4.3,0.7-12.3c0,0,0.3-2.3,0.1-2.6l-1.9,2.6c0,0,2,1.3,2.2,3.3c0,0-2-3.3-2.5-2.9 c-0.1,0.1-0.9,1.4-0.9,1.4s3.4,2.3,3.7,5.4c0,0-1.9-4.2-4-4.9l-1.2,2.2c0,0,3.8,2.3,4.2,5.7c0,0-2.2-4.4-4.4-5.2l-0.9,2.3 c0,0,3.6,2.3,4,5.1c0,0-3-4.8-4.1-4.6c0,0-0.7,2.1-0.6,2.8c0,0,2.5,1.7,2.6,3.4c0,0-2.4-3-2.7-2.8c0,0-0.2,3,0.6,4.6 c-0.7-1.4-1.1-3-1-4.6c-0.7,0.7-1.3,1.5-1.5,2.4c0,0-0.7-1.7,1.5-3.1c0,0,0.2-2.3,0.5-2.6c0,0-2.4,1.2-3.5,2.6 c0,0,0.4-2.2,3.6-3.3l0.8-2.3c0,0-3.3,1.4-4.3,2.6c0,0,0.7-2.2,4.6-3.2l1.2-2.1c0,0-2.9,1-4.4,2.1c0,0,1.1-1.8,4.7-2.7l0.9-1.3 c0,0-2.1,0.8-2.7,1s-0.7,0.1-0.7,0.1c1.1-0.9,2.4-1.5,3.8-1.7C118.7,385.5,120.7,382.9,120.6,382.8z"></path> </g> <path class="st2" d="M492.8,388.5c0,0-12.3,6.4-6,13.9c0.4,0.9,1.3,1.5,2.3,1.5c0,0-0.3-0.6,1-1.2c0.5-0.2,0.9-0.4,1.3-0.7 c0.6-0.4,1-0.9,1.2-1.6l0,0c0,0,2.5-3.4,0.6-9.6c0,0,0.3-1.8,0-2l-1.5,2c0,0,1.5,1,1.7,2.6c0,0-1.6-2.6-2-2.3 c-0.1,0.1-0.7,1.1-0.7,1.1s2.7,1.8,2.9,4.2c0,0-1.5-3.3-3.1-3.8l-0.9,1.7c0,0,2.9,1.8,3.3,4.5c0,0-1.7-3.4-3.4-4.1l-0.7,1.8 c0,0,2.8,1.8,3.1,4c0,0-2.4-3.8-3.2-3.6c-0.2,0.7-0.4,1.4-0.4,2.2c0,0,2,1.3,2,2.6c0,0-1.8-2.3-2.2-2.2c0,0-0.1,2.3,0.4,3.6 c-0.6-1.1-0.9-2.3-0.8-3.6c-0.6,0.5-1,1.2-1.2,1.9c0,0-0.6-1.3,1.2-2.5c0,0,0.2-1.8,0.4-2c0,0-1.9,0.9-2.7,2c0,0,0.3-1.7,2.9-2.5 l0.7-1.8c0,0-2.6,1.1-3.4,2c0,0,0.6-1.7,3.6-2.5l0.9-1.7c-1.2,0.4-2.3,0.9-3.4,1.7c0,0,0.9-1.4,3.7-2.1l0.7-1c0,0-1.7,0.6-2.1,0.8 s-0.6,0.1-0.6,0.1c0.8-0.7,1.9-1.2,3-1.3C491.3,390.6,492.9,388.6,492.8,388.5z"></path> <g> <g> <path class="st2" d="M368.9,185L368.9,185c-1.4-0.4-2.8-0.9-4.1-1.3c0.2-0.9,0.4-1.9,0.6-2.8c3.1-15.1,1-27.2-5.8-31.2 c-6.7-3.9-17.5,0.2-28.5,9.7c-1.1,0.9-2.2,1.9-3.2,2.9c-0.7-0.7-1.4-1.3-2.1-1.9c-11.5-10.2-23.1-14.6-30-10.5 c-6.7,3.9-8.6,15.3-5.8,29.6c0.3,1.4,0.6,2.8,0.9,4.2c-1.7,0.4-3.2,0.9-4.7,1.5c-13.5,4.7-22.1,12.1-22.1,19.7 c0,7.9,9.3,15.8,23.3,20.6c1.2,0.4,2.3,0.8,3.5,1.1c-0.4,1.5-0.7,3-1,4.6c-2.6,14.1-0.6,25.2,6.1,29c6.8,4,18.4-0.1,29.5-9.9 c0.9-0.8,1.8-1.6,2.6-2.4c1.1,1.1,2.3,2.2,3.4,3.1c10.9,9.3,21.6,13.1,28.2,9.3c6.8-4,9-15.9,6.2-30.5c-0.2-1.1-0.5-2.3-0.8-3.4 c0.8-0.2,1.6-0.5,2.4-0.7c14.6-4.9,24.2-12.7,24.2-20.7C391.6,197.2,382.7,189.8,368.9,185z M334.7,163.5 c9.4-8.2,18.2-11.4,22.2-9.1c4.2,2.5,6,12.4,3.3,25.4c-0.2,0.8-0.4,1.7-0.6,2.5c-5.6-1.3-11.3-2.2-17-2.7 c-3.3-4.7-6.9-9.2-10.8-13.5C332.7,165.3,333.7,164.4,334.7,163.5z M305.3,192c-1.3,2.2-2.4,4.4-3.6,6.6c-1.6-3.8-2.9-7.4-4-11 c3.6-0.8,7.5-1.5,11.6-2C307.9,187.7,306.6,189.8,305.3,192L305.3,192z M301.8,211.4c1.2,2.2,2.4,4.4,3.6,6.6s2.6,4.4,4,6.6l0,0 l0,0l0,0c-4-0.4-7.9-1-11.7-1.9C298.7,219.1,300.1,215.2,301.8,211.4z M304.6,205c1.7-3.5,3.5-6.9,5.4-10.3 c1.9-3.4,4-6.6,6.2-9.9c3.8-0.3,7.7-0.4,11.6-0.4s7.8,0.2,11.6,0.4c2.2,3.2,4.2,6.5,6.2,9.8c1.9,3.4,3.8,6.7,5.5,10.3 c-1.7,3.5-3.5,6.9-5.5,10.3l0,0c-1.9,3.4-4,6.6-6.1,9.9c-3.8,0.3-7.7,0.4-11.7,0.4c-4,0-7.8-0.1-11.5-0.4 c-2.2-3.2-4.3-6.5-6.2-9.9C308.1,211.9,306.3,208.5,304.6,205z M350.4,218c1.3-2.2,2.5-4.5,3.7-6.8c1.6,3.6,3,7.4,4.3,11.2 c-3.9,0.9-7.9,1.5-11.9,2C347.8,222.4,349.1,220.2,350.4,218z M354,198.6c-1.2-2.3-2.4-4.5-3.7-6.6l0,0c-1.3-2.2-2.5-4.3-3.9-6.4 c4.1,0.5,7.9,1.2,11.6,2C356.9,191.4,355.6,195,354,198.6z M327.9,170.1L327.9,170.1c2.6,2.9,5.2,5.9,7.5,9c-5-0.2-10-0.2-15.1,0 C322.8,175.9,325.4,172.9,327.9,170.1z M298.5,154.6c4.2-2.5,13.7,1,23.7,9.9c0.7,0.6,1.3,1.2,1.9,1.8 c-3.9,4.2-7.6,8.7-10.9,13.5c-5.7,0.5-11.4,1.4-17,2.6c-0.3-1.3-0.6-2.6-0.9-3.9l0,0C292.9,166.2,294.5,156.9,298.5,154.6z M292.3,221.4c-1-0.3-2.1-0.6-3.1-1c-6.2-2.2-11.4-4.9-14.9-7.9c-3.1-2.7-4.7-5.4-4.7-7.6c0-4.6,6.9-10.6,18.5-14.6 c1.4-0.5,2.9-1,4.4-1.4c1.7,5.5,3.8,10.9,6.2,16.1C296.1,210.3,294,215.8,292.3,221.4z M321.8,246.2c-5,4.3-9.9,7.4-14.3,8.9l0,0 c-3.9,1.4-7.1,1.4-8.9,0.3c-4-2.3-5.7-11.3-3.4-23.3c0.3-1.4,0.6-2.8,0.9-4.2c5.7,1.2,11.4,2,17.2,2.5c3.4,4.7,7,9.3,11,13.5 C323.5,244.8,322.7,245.5,321.8,246.2z M328.1,240.1L328.1,240.1L328.1,240.1L328.1,240.1c-2.6-2.8-5.2-5.8-7.7-9.2 c2.4,0.1,4.9,0.2,7.4,0.2c2.6,0,5.2-0.1,7.7-0.2C333.2,234,330.7,237.1,328.1,240.1z M361.2,247.6c-0.8,4.1-2.3,6.8-4.2,7.9 c-4,2.3-12.6-0.7-21.9-8.7c-1-0.9-2.2-1.9-3.2-2.9c3.9-4.3,7.4-8.8,10.7-13.6c5.8-0.5,11.6-1.4,17.3-2.6c0.3,1,0.5,2.1,0.7,3.1 l0,0C361.8,237.3,362,243,361.2,247.6z M365.8,220.4c-0.7,0.2-1.4,0.4-2.2,0.7c-1.8-5.5-3.9-10.9-6.5-16.2 c2.4-5.2,4.5-10.5,6.2-15.9c1.3,0.4,2.6,0.8,3.8,1.2c11.8,4.1,19,10.1,19,14.7C386.2,209.8,378.4,216.2,365.8,220.4z"></path> <path class="st2" d="M327.8,193.5c6.3,0,11.4,5.1,11.4,11.4c0,6.3-5.1,11.4-11.4,11.4c-6.3,0-11.4-5.1-11.4-11.4 C316.4,198.6,321.6,193.5,327.8,193.5L327.8,193.5"></path> </g> </g> <g> <circle class="st11" cx="518" cy="198.6" r="16.6"></circle> <polygon class="st12" points="535.9,407 539,420.5 531.4,420.5 528.2,405.2 "></polygon> <polygon class="st12" points="498.8,407 498.8,419.7 491.2,420.5 491.2,407 "></polygon> <path class="st12" d="M538.2,263.3c0,0-0.9,19.4-1.8,20.8s-9,20.8-9,20.8l-4.1-12.6c0,0,6.3-10.4,5.4-16.3 c-0.9-5.8-0.3-13.1-0.3-13.1L538.2,263.3z"></path> <circle class="st12" cx="512.4" cy="203.7" r="12.6"></circle> <path class="st12" d="M522.8,205c0,0-0.4,18.1,2.7,20.8c3.1,2.7-18.1,0.4-18.1,0.4s4.5-12.6,0.9-15.4 C504.7,208.2,522.8,205,522.8,205z"></path> <path class="st13" d="M506.1,225.3c0,0,2.7-5,6.3-4.5c3.6,0.4,15.4,1.4,15.8,2.3c0.4,0.9,1.8,4.1,2.7,5c0.9,0.9,7.7,2.3,8.1,7.7 c0.4,5.4-16.3,38.4-16.3,38.4s2.3,7.7,1.8,9.5c-0.4,1.8,2.3,7.2,1.8,9.5c-0.4,2.3,6.8,15.8,3.1,33.4V355c0,0,12.2,49.3,8.6,52.8 c-3.6,3.6-15.8,1.4-18.1,0c-2.3-1.4-11.7-69.6-11.7-69.6l-4.5-23.1l-0.4,50.6c0,0,0.9,42.5-2.3,43.8c-3.1,1.4-15.4,1.8-16.3-0.9 c-0.7-2.1-4.1-58.4-5.6-83c-0.5-8.5,0.2-17,2-25.4c1.9-8.5,4.6-18.5,7.7-22.6c5.8-7.7,9.5-32.1,9.5-32.1l-7.7-13.9 c0,0,4.5-4.5,7.2-4.5C500.7,227.2,506.1,225.3,506.1,225.3z"></path> <path class="st13" d="M536.3,232.6l2.4,1.6c0,0,1.7,29.1,0.3,30.9c-1.4,1.8-10.8,0.9-11.5-0.7 C526.9,262.8,536.3,232.6,536.3,232.6z"></path> <path class="st12" d="M496.1,259c1.3,9.2,2.5,17.3-4.3,24.7c-6.8,7.5-14.5,14.1-22.8,19.8c-0.8,2.2-13,18.3-13.6,11.9 c-0.6-6.4,3.6-11.5,9.5-16.9c6-5.5,14.3-17.3,19.1-23.7s2.8-10.5,2.6-15.9C486.4,253.5,494.2,259.1,496.1,259z"></path> <path class="st11" d="M491.2,412.3c0,0-0.4,5.1-1.8,6.4c-1.4,1.4-5,3.1-4.5,8.1s3.4,5.2,3.4,5.2l-0.2-1.1l1.4,0.4l0.2,0.7h12.6 c0,0,0.2-4.7-0.2-7c-0.4-2.3-0.4-13.1-1.8-12.6c-1.4,0.4-5,0.9-5.8,2.7C493.4,417,490.7,416.3,491.2,412.3z"></path> <path class="st11" d="M537.3,412.3c0,0,0.4,5.1,1.8,6.4c1.4,1.3,5,3.1,4.5,8.1c-0.4,5-3.4,5.2-3.4,5.2l0.2-1.1l-1.4,0.4l-0.2,0.7 h-12.6c0,0-0.2-4.7,0.2-7c0.4-2.3,0.4-13.1,1.8-12.6c1.4,0.4,5,0.9,5.8,2.7C535,417,537.7,416.3,537.3,412.3z"></path> <path class="st13" d="M497,230.3l-6.3,1.4c0,0,0,9.9-1.8,14c-1.8,4.1-5,13.6-3.6,14c1.4,0.4,14,6.8,14.9,3.1 C501.1,259.3,503.4,230.3,497,230.3z"></path> <circle class="st11" cx="536" cy="176.7" r="16.6"></circle> <path class="st11" d="M550.3,190.5c-7.4,5.4-17.8,3.7-23.2-3.8c-1.1-1.5-1.9-3.2-2.5-5c1.2,9.1,9.5,15.6,18.6,14.4 c9.1-1.2,15.6-9.5,14.4-18.6c-0.1-0.9-0.3-1.8-0.6-2.6C557.9,181,555.3,187,550.3,190.5z"></path> <circle class="st11" cx="522.4" cy="201.4" r="12.2"></circle> <ellipse class="st11" cx="512.1" cy="196.8" rx="10.8" ry="8.4"></ellipse> <ellipse class="st14" cx="509.3" cy="205.5" rx="2" ry="3.6"></ellipse> </g> </g> </svg> 